<?xml version="1.0" encoding="UTF-8"?>
<svg width="600" height="400" viewBox="0 0 600 400" fill="none" xmlns="http://www.w3.org/2000/svg">
  <rect width="600" height="400" fill="#F3F4F6"/>
  <path d="M300 100C344.183 100 380 135.817 380 180C380 224.183 344.183 260 300 260C255.817 260 220 224.183 220 180C220 135.817 255.817 100 300 100Z" fill="#8B5CF6"/>
  <path d="M300 140C322.091 140 340 157.909 340 180C340 202.091 322.091 220 300 220C277.909 220 260 202.091 260 180C260 157.909 277.909 140 300 140Z" fill="#C4B5FD"/>
  <path d="M300 180L340 220L260 220L300 180Z" fill="#7C3AED"/>
</svg>
 